<?xml version="1.0" standalone="no"?>
<!DOCTYPE svg PUBLIC "-//W3C//DTD SVG 20010904//EN"
 "http://www.w3.org/TR/2001/REC-SVG-20010904/DTD/svg10.dtd">
<svg version="1.0" xmlns="http://www.w3.org/2000/svg"
 width="260.000000pt" height="260.000000pt" viewBox="0 0 260.000000 260.000000"
 preserveAspectRatio="xMidYMid meet">
<metadata>
Created by potrace 1.14, written by Peter Selinger 2001-2017
</metadata>
<g transform="translate(0.000000,260.000000) scale(0.100000,-0.100000)"
fill="#000000" stroke="none">
<path d="M1497 1954 c-1 -1 -36 -5 -77 -8 -41 -4 -93 -11 -115 -16 -22 -5 -51
-11 -65 -14 -204 -38 -451 -142 -645 -272 -55 -36 -101 -70 -103 -75 -2 -5
-10 -9 -18 -9 -9 0 -12 -4 -9 -10 3 -5 3 -10 -2 -10 -29 -1 -241 -214 -277
-279 -5 -9 -12 -18 -15 -21 -26 -22 -86 -135 -98 -184 -11 -45 -9 -102 4 -136
8 -19 13 -35 12 -35 -9 0 56 -88 92 -125 86 -89 183 -155 321 -220 94 -44 245
-87 272 -77 12 5 16 20 17 59 1 83 11 159 33 266 9 42 57 197 74 237 49 118
168 322 194 333 5 2 8 8 8 13 0 5 15 26 33 47 45 52 220 222 229 222 3 0 14 7
22 16 24 23 114 84 125 84 5 0 11 3 13 8 6 13 212 111 305 143 52 19 87 36 81
40 -19 12 -145 23 -281 24 -70 0 -129 0 -130 -1z"/>
<path d="M2180 1764 c-14 -2 -56 -9 -95 -15 -133 -21 -323 -83 -392 -127 -13
-8 -23 -11 -23 -8 0 4 -9 -2 -20 -12 -12 -11 -42 -30 -67 -43 -26 -13 -64 -37
-84 -54 -20 -16 -51 -41 -69 -55 -103 -81 -220 -219 -273 -322 -26 -52 -32
-74 -32 -128 0 -55 5 -72 30 -110 94 -140 308 -273 488 -304 29 -5 29 -5 32
34 2 14 6 57 9 95 8 78 52 265 67 280 5 5 9 16 9 24 0 19 80 185 92 189 4 2 8
8 8 13 0 9 37 67 50 79 3 3 16 19 28 37 25 36 146 163 155 163 3 0 19 12 34
26 67 62 335 204 386 204 26 0 29 17 4 24 -27 8 -302 16 -337 10z"/>
</g>
</svg>
